<svg xmlns="http://www.w3.org/2000/svg"
     width="14"
     height="8"
     viewBox="0 0 14 8"
     fill="none">
    <path d="M6.99702 6.34151L1.12732 0.466975C1.00136 0.34424 0.847424 0.282841 0.665514 0.282778C0.483591 0.282715 0.327192 0.344729 0.196315 0.468821C0.0654389 0.601281 -3.04346e-07 0.758428 -2.96398e-07 0.940263C-2.8845e-07 1.1221 0.0655515 1.27842 0.196654 1.40924L6.17169 7.38329C6.28926 7.50248 6.41989 7.58858 6.56357 7.64157C6.70724 7.69457 6.85133 7.72106 6.99581 7.72106C7.14029 7.72106 7.28477 7.69497 7.42926 7.64278C7.57374 7.59059 7.70638 7.50409 7.82718 7.38329L13.809 1.40151C13.9401 1.26907 14.0037 1.11299 13.9998 0.933252C13.996 0.753515 13.9285 0.59809 13.7974 0.466975C13.6663 0.344239 13.5111 0.281583 13.332 0.279008C13.1529 0.276433 12.9978 0.339088 12.8667 0.466975L6.99702 6.34151Z"
          fill="#8590a5" />
</svg>